<svg xmlns="http://www.w3.org/2000/svg" viewBox="0 0 100 100"><g stroke="#2f4a58" stroke-width="0.9" stroke-linejoin="round">
   <path d="M 64.71 90.41 L 61.82 91.22 L 58.89 91.83 L 55.94 92.23 L 52.97 92.42 L 50.00 92.41 L 47.05 92.19 L 44.13 91.76 L 41.26 91.13 L 38.44 90.30 L 35.70 89.29 L 33.05 88.08 L 30.49 86.70 L 28.04 85.14 L 25.71 83.43 L 23.52 81.56 L 21.47 79.54 L 19.57 77.40 L 17.83 75.13 L 16.26 72.75 L 14.87 70.28 L 13.65 67.73 L 12.63 65.10 L 11.79 62.42 L 11.14 59.69 L 10.68 56.93 L 10.43 54.16 L 10.36 51.38 L 10.50 48.62 L 10.82 45.88 L 11.34 43.18 L 12.04 40.54 L 12.92 37.95 L 13.98 35.45 L 15.21 33.03 L 16.60 30.71 L 18.14 28.51 L 19.83 26.43 L 21.65 24.47 L 23.60 22.66 L 25.67 21.00 L 27.84 19.49 L 30.10 18.15 L 32.44 16.97 L 34.85 15.97 L 37.31 15.14 L 39.82 14.50 L 42.35 14.03 L 44.91 13.75 L 47.46 13.65 L 50.00 13.74 L 52.52 14.01 L 55.00 14.46 L 57.42 15.09 L 59.78 15.90 L 62.04 16.92 L 61.22 19.18 L 58.96 18.74 L 56.72 18.40 L 54.47 18.21 L 52.23 18.16 L 50.00 18.26 L 47.80 18.51 L 45.63 18.91 L 43.51 19.46 L 41.44 20.14 L 39.43 20.96 L 37.49 21.91 L 35.64 22.99 L 33.87 24.18 L 32.19 25.49 L 30.62 26.91 L 29.16 28.42 L 27.81 30.02 L 26.59 31.71 L 25.49 33.47 L 24.52 35.29 L 23.68 37.16 L 22.97 39.08 L 22.41 41.03 L 21.98 43.01 L 21.70 45.01 L 21.55 47.01 L 21.54 49.01 L 21.68 50.99 L 21.95 52.95 L 22.35 54.88 L 22.88 56.76 L 23.54 58.60 L 24.33 60.37 L 25.23 62.08 L 26.24 63.72 L 27.36 65.27 L 28.58 66.73 L 29.89 68.10 L 31.29 69.37 L 32.77 70.54 L 34.32 71.59 L 35.93 72.52 L 37.59 73.34 L 39.30 74.04 L 41.04 74.61 L 42.81 75.06 L 44.60 75.38 L 46.41 75.58 L 48.21 75.65 L 50.00 75.59 L 51.78 75.41 L 53.53 75.11 L 55.25 74.68 L 56.92 74.14 L 58.55 73.49 A 9.00 9.00 0 0 0 64.71 90.41 Z" fill="#79c7dc"/><path d="M 66.59 12.73 L 68.10 13.53 L 69.57 14.40 L 71.00 15.33 L 72.38 16.31 L 73.72 17.35 L 75.02 18.44 L 76.26 19.58 L 77.45 20.77 L 78.58 22.01 L 79.66 23.29 L 80.69 24.61 L 81.65 25.98 L 82.55 27.37 L 83.39 28.81 L 84.17 30.27 L 84.89 31.76 L 85.54 33.28 L 86.12 34.82 L 86.64 36.37 L 87.09 37.95 L 87.47 39.54 L 87.78 41.14 L 88.02 42.75 L 88.20 44.36 L 88.31 45.97 L 88.34 47.59 L 88.31 49.20 L 88.21 50.80 L 88.05 52.39 L 87.82 53.97 L 87.52 55.54 L 87.15 57.09 L 86.72 58.61 L 86.23 60.12 L 85.68 61.59 L 85.06 63.04 L 84.39 64.46 L 83.66 65.84 L 82.87 67.18 L 82.03 68.49 L 81.13 69.76 L 80.18 70.98 L 79.19 72.16 L 78.15 73.29 L 77.06 74.37 L 75.93 75.40 L 74.76 76.37 L 73.56 77.29 L 72.31 78.15 L 71.04 78.96 L 69.73 79.70 L 68.40 80.38 L 67.04 81.00 L 65.65 81.54 L 64.24 81.97 L 63.42 80.15 L 64.58 79.37 L 65.72 78.59 L 66.83 77.78 L 67.90 76.94 L 68.93 76.05 L 69.92 75.14 L 70.88 74.18 L 71.79 73.20 L 72.65 72.18 L 73.47 71.13 L 74.25 70.06 L 74.97 68.96 L 75.65 67.83 L 76.28 66.68 L 76.86 65.51 L 77.39 64.32 L 77.87 63.12 L 78.30 61.90 L 78.67 60.66 L 78.99 59.42 L 79.26 58.17 L 79.48 56.91 L 79.64 55.65 L 79.75 54.39 L 79.81 53.13 L 79.82 51.88 L 79.77 50.62 L 79.67 49.38 L 79.52 48.14 L 79.32 46.92 L 79.07 45.71 L 78.77 44.51 L 78.42 43.33 L 78.03 42.17 L 77.59 41.04 L 77.10 39.92 L 76.57 38.83 L 75.99 37.77 L 75.37 36.73 L 74.72 35.73 L 74.02 34.76 L 73.28 33.82 L 72.51 32.91 L 71.71 32.04 L 70.87 31.21 L 70.00 30.41 L 69.10 29.66 L 68.18 28.94 L 67.22 28.27 L 66.25 27.64 L 65.25 27.05 L 64.23 26.51 L 63.19 26.01 L 62.13 25.56 L 61.06 25.15 A 6.80 6.80 0 0 0 66.59 12.73 Z" fill="#79c7dc"/></g>
  <g fill="none" stroke="#eafaff" stroke-width="1.1" stroke-linecap="round" opacity="0.85">
   <path d="M 60.51 82.34 L 57.63 83.13 L 54.70 83.67 L 51.74 83.96 L 48.76 83.98 L 45.79 83.74 L 42.85 83.24 L 39.97 82.49 L 37.16 81.48 L 34.45 80.24 L 31.87 78.76 L 29.42 77.06 L 27.13 75.16 L 25.01 73.06 L 23.09 70.78 L 21.37 68.34 L 19.88 65.77 L 18.61 63.07 L 17.59 60.27 L 16.81 57.39 L 16.29 54.46 L 16.03 51.49 L 16.03 48.51 L 16.29 45.54 L 16.81 42.61 L 17.59 39.73 L 18.61 36.93 L 19.88 34.23 L 21.37 31.66 L 23.09 29.22 L 25.01 26.94 L 27.13 24.84 L 29.42 22.94 L 31.87 21.24 L 34.45 19.76 L 37.16 18.52 L 39.97 17.51 L 42.85 16.76 L 45.79 16.26 L 48.76 16.02 L 51.74 16.04 L 54.70 16.33 L 57.63 16.87 L 60.51 17.66"/><path d="M 65.44 19.71 L 66.96 20.53 L 68.45 21.44 L 69.88 22.42 L 71.27 23.47 L 72.60 24.60 L 73.87 25.78 L 75.07 27.04 L 76.21 28.35 L 77.29 29.72 L 78.29 31.14 L 79.21 32.61 L 80.07 34.12 L 80.84 35.68 L 81.53 37.28 L 82.14 38.90 L 82.66 40.56 L 83.10 42.24 L 83.46 43.95 L 83.72 45.66 L 83.90 47.39 L 83.99 49.13 L 83.99 50.87 L 83.90 52.61 L 83.72 54.34 L 83.46 56.05 L 83.10 57.76 L 82.66 59.44 L 82.14 61.10 L 81.53 62.72 L 80.84 64.32 L 80.07 65.88 L 79.21 67.39 L 78.29 68.86 L 77.29 70.28 L 76.21 71.65 L 75.07 72.96 L 73.87 74.22 L 72.60 75.40 L 71.27 76.53 L 69.88 77.58 L 68.45 78.56 L 66.96 79.47 L 65.44 80.29"/></g>
  <line x1="63.83" y1="81.06" x2="70.17" y2="86.45" stroke="#2f4a58" stroke-width="1.0" stroke-linecap="round"/><line x1="63.83" y1="81.06" x2="68.52" y2="87.18" stroke="#2f4a58" stroke-width="1.0" stroke-linecap="round"/><line x1="63.83" y1="81.06" x2="66.88" y2="87.91" stroke="#2f4a58" stroke-width="1.0" stroke-linecap="round"/><line x1="63.83" y1="81.06" x2="65.24" y2="88.64" stroke="#2f4a58" stroke-width="1.0" stroke-linecap="round"/><line x1="63.83" y1="81.06" x2="63.59" y2="89.38" stroke="#2f4a58" stroke-width="1.0" stroke-linecap="round"/>
  <circle cx="62.65" cy="84.77" r="1.5" fill="#2f4a58"/>
  <circle cx="64.81" cy="16.75" r="1.2" fill="#2f4a58"/></svg>